<?xml version="1.0" encoding="utf-8"?>
<!-- Generator: Adobe Illustrator 25.4.1, SVG Export Plug-In . SVG Version: 6.00 Build 0)  -->
<svg version="1.1" id="Layer_1" xmlns="http://www.w3.org/2000/svg" xmlns:xlink="http://www.w3.org/1999/xlink" x="0px" y="0px"
	 viewBox="0 0 540 160" style="enable-background:new 0 0 540 160;" xml:space="preserve">
<style type="text/css">
	.st0{fill:#FFFFFF;}
	.st1{fill:#A6A6A6;}
	.st2{fill:url(#SVGID_1_);}
</style>
<g transform="scale(4.00216 4.0011)">
	<path class="st0" d="M134,35.3c0,2.1-1.7,3.8-3.8,3.8c0,0,0,0,0,0H4.7c-2.1,0-3.8-1.7-3.8-3.8V4.7c0-2.1,1.7-3.8,3.8-3.8h125.5
		c2.1,0,3.8,1.7,3.8,3.8c0,0,0,0,0,0L134,35.3L134,35.3z"/>
	<path class="st1" d="M130.2,40H4.7C2.1,40,0,37.9,0,35.3V4.7C0,2.1,2.1,0,4.7,0h125.5c2.6,0,4.7,2.1,4.7,4.7v30.5
		C134.9,37.9,132.8,40,130.2,40L130.2,40z"/>
	<path d="M134,35.3c0,2.1-1.7,3.8-3.8,3.8c0,0,0,0,0,0H4.7c-2.1,0-3.8-1.7-3.8-3.8V4.7c0-2.1,1.7-3.8,3.8-3.8h125.5
		c2.1,0,3.8,1.7,3.8,3.8c0,0,0,0,0,0L134,35.3L134,35.3z"/>
	<path class="st0" d="M30.1,19.8c0-3.2,2.6-4.8,2.8-4.9c-1.5-2.2-3.9-2.5-4.7-2.5c-2-0.2-3.9,1.2-4.9,1.2c-1,0-2.6-1.2-4.2-1.1
		c-2.1,0-4.1,1.3-5.2,3.2c-2.3,3.9-0.6,9.7,1.6,12.9c1.1,1.6,2.4,3.3,4,3.2c1.6-0.1,2.2-1,4.2-1c1.9,0,2.5,1,4.2,1
		c1.7,0,2.8-1.6,3.9-3.1c1.3-1.8,1.8-3.5,1.8-3.6C33.5,24.9,30.2,23.6,30.1,19.8L30.1,19.8z M26.9,10.3c0.9-1.1,1.5-2.6,1.3-4.1
		c-1.3,0.1-2.8,0.9-3.8,1.9c-0.8,0.9-1.5,2.5-1.3,3.9C24.6,12.2,26,11.4,26.9,10.3z"/>
	
		<linearGradient id="SVGID_1_" gradientUnits="userSpaceOnUse" x1="-14.0048" y1="89.9669" x2="-14.0048" y2="126.0119" gradientTransform="matrix(16.0174 0 0 -16.0088 323.2817 1480.358)">
		<stop  offset="0" style="stop-color:#1A1A1A;stop-opacity:0.1"/>
		<stop  offset="0.123" style="stop-color:#212121;stop-opacity:0.151"/>
		<stop  offset="0.308" style="stop-color:#353535;stop-opacity:0.227"/>
		<stop  offset="0.532" style="stop-color:#575757;stop-opacity:0.318"/>
		<stop  offset="0.783" style="stop-color:#858585;stop-opacity:0.421"/>
		<stop  offset="1" style="stop-color:#B3B3B3;stop-opacity:0.51"/>
	</linearGradient>
	<path class="st2" d="M130.2,0H63l26.3,40h40.9c2.6,0,4.7-2.1,4.7-4.7V4.7C134.9,2.1,132.8,0,130.2,0z"/>
	<g>
		<path class="st0" d="M53.7,31.5h-2.3l-1.2-3.9h-4.3l-1.2,3.9h-2.2l4.3-13.3h2.6C49.4,18.2,53.7,31.5,53.7,31.5z M49.8,26l-1.1-3.5
			c-0.1-0.4-0.3-1.2-0.7-2.5h0c-0.1,0.6-0.3,1.4-0.6,2.5L46.2,26H49.8z M64.7,26.6c0,1.6-0.4,2.9-1.3,3.9c-0.8,0.8-1.8,1.3-3,1.3
			c-1.3,0-2.2-0.5-2.7-1.4v5h-2.1V25.1c0-1,0-2.1-0.1-3.2h1.9l0.1,1.5h0c0.7-1.1,1.8-1.7,3.2-1.7c1.1,0,2.1,0.4,2.8,1.3
			C64.3,23.9,64.7,25.1,64.7,26.6z M62.5,26.7c0-0.9-0.2-1.7-0.6-2.3c-0.5-0.6-1.1-0.9-1.9-0.9c-0.5,0-1,0.2-1.4,0.5
			c-0.4,0.4-0.7,0.8-0.8,1.4c-0.1,0.2-0.1,0.4-0.1,0.6v1.6c0,0.7,0.2,1.3,0.6,1.8c0.4,0.5,1,0.7,1.7,0.7c0.8,0,1.4-0.3,1.9-0.9
			C62.3,28.5,62.5,27.7,62.5,26.7z M75.7,26.6c0,1.6-0.4,2.9-1.3,3.9c-0.8,0.8-1.8,1.3-3,1.3c-1.3,0-2.2-0.5-2.7-1.4v5h-2.1V25.1
			c0-1,0-2.1-0.1-3.2h1.9l0.1,1.5h0c0.7-1.1,1.8-1.7,3.2-1.7c1.1,0,2.1,0.4,2.8,1.3C75.3,23.9,75.7,25.1,75.7,26.6L75.7,26.6z
			 M73.5,26.7c0-0.9-0.2-1.7-0.6-2.3c-0.5-0.6-1.1-0.9-1.9-0.9c-0.5,0-1,0.2-1.4,0.5c-0.4,0.4-0.7,0.8-0.8,1.4
			c-0.1,0.3-0.1,0.5-0.1,0.6v1.6c0,0.7,0.2,1.3,0.6,1.8c0.4,0.5,1,0.7,1.7,0.7c0.8,0,1.4-0.3,1.9-0.9C73.3,28.5,73.5,27.7,73.5,26.7
			z M88,27.8c0,1.1-0.4,2.1-1.2,2.8c-0.9,0.8-2.1,1.2-3.6,1.2c-1.4,0-2.6-0.3-3.4-0.8l0.5-1.8c0.9,0.6,2,0.8,3.1,0.8
			c0.8,0,1.4-0.2,1.9-0.5c0.4-0.4,0.7-0.8,0.7-1.5c0-0.5-0.2-1-0.6-1.4c-0.4-0.4-1-0.7-1.8-1c-2.3-0.9-3.5-2.1-3.5-3.8
			c0-1.1,0.4-2,1.2-2.7c0.8-0.7,1.9-1,3.3-1c1.2,0,2.2,0.2,3,0.6L87,20.4c-0.8-0.4-1.6-0.6-2.6-0.6c-0.8,0-1.3,0.2-1.8,0.6
			c-0.4,0.3-0.5,0.7-0.5,1.2c0,0.5,0.2,1,0.6,1.3c0.4,0.3,1,0.7,1.9,1c1.1,0.5,2,1,2.5,1.6C87.8,26.1,88,26.9,88,27.8L88,27.8z
			 M95.1,23.5h-2.3v4.7c0,1.2,0.4,1.8,1.2,1.8c0.4,0,0.7,0,0.9-0.1l0.1,1.6c-0.4,0.2-1,0.2-1.7,0.2c-0.8,0-1.5-0.3-2-0.8
			c-0.5-0.5-0.7-1.4-0.7-2.6v-4.8h-1.4v-1.6h1.4v-1.8l2.1-0.6v2.4h2.3L95.1,23.5L95.1,23.5z M105.7,26.6c0,1.5-0.4,2.7-1.3,3.6
			c-0.9,1-2.1,1.5-3.5,1.5c-1.4,0-2.5-0.5-3.4-1.4c-0.8-0.9-1.3-2.1-1.3-3.5c0-1.5,0.4-2.7,1.3-3.7c0.9-0.9,2-1.4,3.5-1.4
			c1.4,0,2.5,0.5,3.4,1.4C105.3,24,105.7,25.2,105.7,26.6z M103.5,26.7c0-0.9-0.2-1.6-0.6-2.3c-0.4-0.8-1.1-1.1-1.9-1.1
			c-0.9,0-1.5,0.4-2,1.1c-0.4,0.6-0.6,1.4-0.6,2.3c0,0.9,0.2,1.6,0.6,2.3c0.5,0.8,1.1,1.1,1.9,1.1c0.8,0,1.5-0.4,1.9-1.2
			C103.3,28.3,103.5,27.6,103.5,26.7L103.5,26.7z M112.6,23.8c-0.2,0-0.4-0.1-0.7-0.1c-0.8,0-1.3,0.3-1.7,0.9
			c-0.4,0.5-0.5,1.1-0.5,1.9v5h-2.1v-6.6c0-1,0-2-0.1-3h1.9l0.1,1.8h0.1c0.2-0.6,0.6-1.1,1.1-1.5c0.4-0.3,1-0.5,1.5-0.5
			c0.2,0,0.4,0,0.5,0L112.6,23.8L112.6,23.8z M122.2,26.3c0,0.3,0,0.6-0.1,1h-6.4c0,0.9,0.3,1.7,0.9,2.2c0.5,0.4,1.2,0.7,2.1,0.7
			c0.9,0,1.8-0.1,2.6-0.5l0.3,1.5c-0.9,0.4-2,0.6-3.2,0.6c-1.5,0-2.7-0.4-3.5-1.3c-0.8-0.9-1.3-2.1-1.3-3.5c0-1.4,0.4-2.7,1.2-3.6
			c0.8-1,1.9-1.5,3.4-1.5c1.4,0,2.4,0.5,3.1,1.5C121.9,24,122.2,25.1,122.2,26.3z M120.1,25.7c0-0.6-0.1-1.2-0.4-1.6
			c-0.4-0.6-0.9-0.9-1.7-0.9c-0.7,0-1.3,0.3-1.7,0.9c-0.4,0.5-0.6,1-0.6,1.7L120.1,25.7L120.1,25.7z"/>
	</g>
	<g>
		<path class="st0" d="M45.2,13.5c-0.6,0-1.1,0-1.5-0.1V7c0.6-0.1,1.2-0.1,1.8-0.1c2.4,0,3.6,1.2,3.6,3.2
			C49.1,12.3,47.7,13.5,45.2,13.5z M45.6,7.7c-0.3,0-0.6,0-0.8,0.1v4.9c0.1,0,0.4,0,0.7,0c1.6,0,2.5-0.9,2.5-2.6
			C47.9,8.5,47.1,7.7,45.6,7.7z M52.6,13.5c-1.4,0-2.3-1-2.3-2.4c0-1.5,0.9-2.5,2.3-2.5c1.4,0,2.3,1,2.3,2.4
			C54.9,12.5,54,13.5,52.6,13.5z M52.6,9.4c-0.8,0-1.2,0.7-1.2,1.7c0,1,0.5,1.7,1.2,1.7s1.2-0.8,1.2-1.7
			C53.8,10.1,53.3,9.4,52.6,9.4L52.6,9.4z M62.8,8.7l-1.5,4.7h-1l-0.6-2c-0.2-0.5-0.3-1-0.4-1.5h0c-0.1,0.5-0.2,1-0.4,1.5l-0.7,2h-1
			l-1.4-4.7H57l0.5,2.2c0.1,0.5,0.2,1,0.3,1.5h0c0.1-0.4,0.2-0.9,0.4-1.5l0.7-2.3h0.9l0.6,2.2c0.2,0.5,0.3,1.1,0.4,1.6h0
			c0.1-0.5,0.2-1,0.3-1.6l0.6-2.2L62.8,8.7L62.8,8.7z M68.2,13.4h-1v-2.7c0-0.8-0.3-1.3-1-1.3c-0.6,0-1,0.5-1,1.2v2.8h-1v-3.4
			c0-0.4,0-0.9,0-1.3H65l0,0.7h0c0.3-0.5,0.9-0.8,1.5-0.8c1,0,1.6,0.8,1.6,2L68.2,13.4L68.2,13.4z M71.1,13.4h-1V6.6h1V13.4z
			 M74.9,13.5c-1.4,0-2.3-1-2.3-2.4c0-1.5,0.9-2.5,2.3-2.5c1.4,0,2.3,1,2.3,2.4C77.3,12.5,76.3,13.5,74.9,13.5z M75,9.4
			c-0.8,0-1.2,0.7-1.2,1.7c0,1,0.5,1.7,1.2,1.7c0.7,0,1.2-0.8,1.2-1.7C76.2,10.1,75.7,9.4,75,9.4L75,9.4z M81.4,13.4l-0.1-0.5h0
			c-0.3,0.4-0.8,0.6-1.4,0.6c-0.8,0-1.4-0.6-1.4-1.4c0-1.2,1-1.8,2.8-1.8v-0.1c0-0.6-0.3-0.9-1-0.9c-0.5,0-0.9,0.1-1.2,0.4L78.8,9
			c0.4-0.3,1-0.4,1.6-0.4c1.2,0,1.9,0.6,1.9,2v1.7c0,0.5,0,0.8,0.1,1.1L81.4,13.4L81.4,13.4z M81.2,11.1c-1.2,0-1.7,0.3-1.7,1
			c0,0.5,0.3,0.7,0.7,0.7c0.5,0,1-0.4,1-1V11.1z M87.4,13.4l0-0.8h0c-0.3,0.6-0.8,0.9-1.5,0.9c-1.1,0-2-1-2-2.4
			c0-1.5,0.9-2.5,2.1-2.5c0.6,0,1.1,0.2,1.3,0.6h0V6.6h1v5.6c0,0.5,0,0.9,0,1.3L87.4,13.4L87.4,13.4z M87.2,10.7
			c0-0.7-0.4-1.2-1.1-1.2c-0.8,0-1.3,0.7-1.3,1.7c0,1,0.5,1.6,1.2,1.6c0.7,0,1.1-0.6,1.1-1.3L87.2,10.7L87.2,10.7z M94.9,13.5
			c-1.4,0-2.3-1-2.3-2.4c0-1.5,0.9-2.5,2.3-2.5c1.4,0,2.3,1,2.3,2.4C97.3,12.5,96.3,13.5,94.9,13.5L94.9,13.5z M94.9,9.4
			c-0.8,0-1.2,0.7-1.2,1.7c0,1,0.5,1.7,1.2,1.7c0.7,0,1.2-0.8,1.2-1.7C96.2,10.1,95.7,9.4,94.9,9.4L94.9,9.4z M102.9,13.4h-1v-2.7
			c0-0.8-0.3-1.3-1-1.3c-0.6,0-1,0.5-1,1.2v2.8h-1v-3.4c0-0.4,0-0.9,0-1.3h0.9l0,0.7h0c0.3-0.5,0.9-0.8,1.5-0.8c1,0,1.6,0.8,1.6,2
			V13.4z M109.9,9.5h-1.2v2.3c0,0.6,0.2,0.9,0.6,0.9c0.2,0,0.3,0,0.5,0l0,0.8c-0.2,0.1-0.5,0.1-0.8,0.1c-0.8,0-1.3-0.5-1.3-1.6V9.5
			h-0.7V8.7h0.7V7.9l1-0.3v1.2h1.2L109.9,9.5L109.9,9.5z M115.5,13.4h-1v-2.7c0-0.8-0.3-1.3-1-1.3c-0.5,0-1,0.4-1,1.1v2.8h-1V6.6h1
			v2.8h0c0.3-0.5,0.8-0.8,1.4-0.8c1,0,1.6,0.8,1.6,2L115.5,13.4L115.5,13.4z M121.2,11.3H118c0,0.9,0.6,1.4,1.5,1.4
			c0.5,0,0.9-0.1,1.3-0.2l0.2,0.7c-0.4,0.2-1,0.3-1.6,0.3c-1.5,0-2.3-0.9-2.3-2.4c0-1.4,0.9-2.5,2.2-2.5c1.2,0,2,0.9,2,2.2
			C121.2,11,121.2,11.2,121.2,11.3L121.2,11.3z M120.2,10.6c0-0.7-0.4-1.2-1-1.2c-0.6,0-1.1,0.5-1.1,1.2H120.2L120.2,10.6z"/>
	</g>
</g>
</svg>
