<svg width="44" height="44" viewBox="0 0 44 44" fill="none" xmlns="http://www.w3.org/2000/svg">
<path fill-rule="evenodd" clip-rule="evenodd" d="M29.1801 8.66885C27.7293 9.32247 26.9481 10.5978 26.8365 12.479C26.6931 14.9978 26.1191 15.8587 25.4655 14.5515C23.0901 9.8645 14.9279 8.54132 14.0989 12.7181C14.0032 13.1645 13.9873 13.1645 12.951 13.1645C8.3916 13.1326 5.76123 22.108 9.02934 26.5558C9.25253 26.8587 8.93369 27.9268 7.99311 30.0152C7.46702 31.179 7.53078 31.3703 8.45541 31.7848C9.30034 32.1674 9.57137 31.7689 11.2612 27.6239C11.5163 27.0022 11.5163 26.3007 11.2612 25.679C10.8786 24.7544 10.4163 23.7341 10.0496 23.0486C8.83802 20.6732 9.63514 17.3254 11.8989 15.3167C13.9714 13.4833 16.0916 14.9978 14.2743 17.0225C11.7714 19.7964 14.1467 23.1602 17.8293 22.0602C21.1293 21.0877 21.2568 16.4804 18.0047 15.6036C16.2829 15.1413 15.5496 12.7181 16.8568 11.8413C20.109 9.64132 24.1583 14.1529 23.7278 19.5094C23.5047 22.2993 26.3105 21.0239 26.3105 19.1109C26.3105 18.6167 26.438 18.3457 26.9482 17.7558C28.0322 16.4964 28.5424 15.1732 28.7815 12.8935C29.0047 10.7891 31.7467 9.03551 32.5279 10.5022C33.0221 11.4268 32.2409 16.3688 31.3641 17.7877C30.6626 18.9355 28.1757 21.7573 27.3786 22.2993C26.3423 23.0007 26.454 23.6065 27.6815 23.8138C28.2873 23.9094 28.383 23.8775 29.5149 22.937C32.3366 20.5935 33.2293 19.4457 33.8989 17.2457C34.3772 15.6833 35.0786 16.0341 35.0946 17.6602C35.1105 20.992 31.6192 24.8819 28.2713 26.2529C27.4742 26.5877 27.4264 26.9544 28.1119 27.4645C29.1322 28.2138 30.9496 27.4326 33.038 25.3442C34.3452 24.037 34.409 24.0051 34.2655 24.5312C33.4844 27.5602 30.9656 30.0631 27.7612 31.0036C25.6409 31.6254 23.6641 32.0717 22.1815 32.2631C21.9743 32.3268 20.7148 32.279 19.6626 33.3949C18.1163 35.037 20.4917 36.3442 21.3047 35.037C21.9105 34.0486 22.1018 33.9529 23.2815 33.937C24.4453 33.937 24.509 33.921 27.809 32.9964C30.6148 32.2152 32.2728 31.4022 33.4684 30.2384C35.9873 27.7674 37.0395 24.1964 35.7322 22.4747C35.4453 22.092 35.4452 22.0761 35.9075 21.0718C36.8481 19.0631 36.625 16.4167 35.3815 14.9181C34.9351 14.3761 34.9033 14.2326 34.8554 12.9254C34.7917 9.83262 31.7148 7.52102 29.1801 8.66885ZM17.7496 16.5761C19.0728 17.2457 18.2916 20.7051 16.7453 21.0877C16.2032 21.2312 13.796 19.9877 15.6771 17.3891C16.538 16.1935 16.7931 16.0819 17.7496 16.5761Z" fill="#522A00"/>
</svg>
